<svg width="121" height="127" viewBox="0 0 121 127" fill="none" xmlns="http://www.w3.org/2000/svg">
<path d="M97.6631 40.1141H4.79534C2.14676 40.1141 0 42.1783 0 44.725V59.6333C0 86.7525 23.0172 108.815 51.309 108.815C79.513 108.815 102.457 86.7513 102.458 59.6333V44.725C102.458 42.1783 100.312 40.1141 97.6631 40.1141ZM92.868 59.6333C92.868 81.6685 74.2241 99.5936 51.3093 99.5936C28.305 99.5936 9.59068 81.6683 9.59068 59.6333V49.3359H92.868V59.6333Z" fill="#FFFAF7"/>
<path d="M93.1876 117.729H9.75036C7.10178 117.729 4.95502 119.794 4.95502 122.34C4.95502 124.887 7.10178 126.951 9.75036 126.951H93.1876C95.8362 126.951 97.9829 124.887 97.9829 122.34C97.9829 119.793 95.8362 117.729 93.1876 117.729Z" fill="#E4D5C9"/>
<path d="M30.0503 11.527C27.4017 11.527 25.2549 13.5912 25.2549 16.1379V28.7408C25.2549 31.2875 27.4017 33.3517 30.0503 33.3517C32.6973 33.3517 34.8456 31.2875 34.8456 28.7408V16.1379C34.8454 13.5912 32.6989 11.527 30.0503 11.527Z" fill="#E4D5C9"/>
<path d="M51.4689 0C48.8203 0 46.6736 2.06419 46.6736 4.6109V28.2798C46.6736 30.8265 48.8203 32.8907 51.4689 32.8907C54.1175 32.8907 56.2643 30.8265 56.2643 28.2798V4.6109C56.2643 2.06419 54.1175 0 51.4689 0Z" fill="#E4D5C9"/>
<path d="M72.8864 11.527C70.2378 11.527 68.0911 13.5912 68.0911 16.1379V28.2799C68.0911 30.8266 70.2378 32.8908 72.8864 32.8908C75.5365 32.8908 77.6817 30.8266 77.6817 28.2799V16.1379C77.6815 13.5912 75.535 11.527 72.8864 11.527Z" fill="#E4D5C9"/>
<path d="M104.055 52.5616H97.6615V61.7832H104.055C108.112 61.7832 111.41 64.9555 111.41 68.853C111.41 72.7538 108.11 75.9246 104.055 75.9246H91.9071V85.1464H104.055C113.398 85.1464 121 77.8368 121 68.8533C121 59.8697 113.398 52.5616 104.055 52.5616Z" fill="#FFFAF6"/>
</svg>
